<svg xmlns="http://www.w3.org/2000/svg" version="1.1" xmlns:xlink="http://www.w3.org/1999/xlink" xmlns:svgjs="http://svgjs.dev/svgjs" width="1000" height="95" viewBox="0 0 1000 95"><g transform="matrix(1,0,0,1,-0.6060606060606233,0.2778823657185825)"><svg viewBox="0 0 396 38" data-background-color="#363740" preserveAspectRatio="xMidYMid meet" height="95" width="1000" xmlns="http://www.w3.org/2000/svg" xmlns:xlink="http://www.w3.org/1999/xlink"><g id="tight-bounds" transform="matrix(1,0,0,1,0.2400000000000091,-0.111152946287433)"><svg viewBox="0 0 395.52 38.22230589257487" height="38.22230589257487" width="395.52"><g><svg viewBox="0 0 457.7565671332366 44.23673021162408" height="38.22230589257487" width="395.52"><g><rect width="2.886623721266163" height="38.41105372934073" x="51.79333681179729" y="2.9128382411416744" fill="#ffffff" opacity="1" stroke-width="0" stroke="transparent" fill-opacity="1" class="rect-o$-0" data-fill-palette-color="primary" rx="1%" id="o$-0" data-palette-color="#fefefe"></rect></g><g transform="matrix(1,0,0,1,62.236567133236655,6.1137593852534025)"><svg viewBox="0 0 395.52 32.00921144111727" height="32.00921144111727" width="395.52"><g id="textblocktransform"><svg viewBox="0 0 395.52 32.00921144111727" height="32.00921144111727" width="395.52" id="textblock"><g><svg viewBox="0 0 395.52 32.00921144111727" height="32.00921144111727" width="395.52"><g transform="matrix(1,0,0,1,0,0)"><svg width="395.52" viewBox="2.37 -32.4 400.29 32.4" height="32.00921144111727" data-palette-color="#fefefe"><path d="M27.22 0L22.88 0 22.88-12.13 8.86-12.13 2.37-18.63 2.37-25.93 8.86-32.4 12.52-32.4 12.52-20.9 27.42-20.9 33.69-14.4 33.69-6.47 27.22 0ZM22.88-26.56L14.23-26.56 14.23-32.4 27.2-32.4 32.81-26.76 32.81-23.32 22.88-23.32 22.88-26.56ZM2.37-6.47L2.37-9.72 13.16-9.72 13.16-5.86 21.17-5.86 21.17 0 7.81 0 2.37-6.47ZM59.35-19.65L59.35-32.4 70.24-32.4 70.24 0 59.42 0 59.42-13.16 51.41-13.16 51.41-19.65 59.35-19.65ZM49.7-32.4L49.7 0 38.91 0 38.91-32.4 49.7-32.4ZM98.55 0L97.19-3.54 86.59-3.54 88.84-9.96 94.7-9.96 86.03-32.4 96.55-32.4 109.47 0 98.55 0ZM89.64-18.07L83.71 0 73.29 0 84.86-30.93 89.64-18.07ZM119.79-32.4L124.55-14.6 127.8-28.2 132.02-12.82 128.53 0 118.74 0 109.05-32.4 119.79-32.4ZM139.15-32.4L147.45 0 137.15 0 128.26-32.4 139.15-32.4ZM144.21-18.95L147.55-32.4 157.39-32.4 148.6-1.68 144.21-18.95ZM180.73-13.31L170.4-13.31 170.4 0 159.61 0 159.61-32.4 170.4-32.4 170.4-19.56 180.73-19.56 180.73-13.31ZM178.82-26.12L172.11-26.12 172.11-32.4 188.98-32.4 188.98-23.02 178.82-23.02 178.82-26.12ZM188.98 0L172.11 0 172.11-6.47 178.19-6.47 178.19-9.72 188.98-9.72 188.98 0ZM192.57 0L192.57-6.05 213.73-32.4 221.06-32.4 221.06-26.12 199.67 0 192.57 0ZM220.62-7.1L220.62 0 201.84 0 208-7.1 220.62-7.1ZM193.22-25.32L193.22-32.4 211.61-32.4 205.48-25.32 193.22-25.32ZM238.12 0L238.12-32.4 248.91-32.4 248.91-17.92 258.87-17.92 258.87-11.55 248.91-11.55 248.91 0 238.12 0ZM256.28-25.93L250.62-25.93 250.62-32.4 267.07-32.4 267.07-21.66 256.28-21.66 256.28-25.93ZM288.87 0L287.5-3.54 276.91-3.54 279.15-9.96 285.01-9.96 276.35-32.4 286.87-32.4 299.78 0 288.87 0ZM279.96-18.07L274.03 0 263.6 0 275.18-30.93 279.96-18.07ZM313.65 0L302.86 0 302.86-32.4 313.65-32.4 313.65 0ZM323.46-25.93L315.36-25.93 315.36-32.4 327.69-32.4 334.18-25.93 334.18-16.21 329.2-11.23 328.86-11.91 318.73-10.57 319.12-9.72 315.36-9.72 315.36-15.99 323.46-15.99 323.46-25.93ZM329.2-11.23L335.28 0 323.76 0 319.12-9.72 327.69-9.72 329.2-11.23ZM361.77 0L360.4-3.54 349.8-3.54 352.05-9.96 357.91-9.96 349.24-32.4 359.77-32.4 372.68 0 361.77 0ZM352.86-18.07L346.92 0 336.5 0 348.07-30.93 352.86-18.07ZM374.17 0L374.17-6.05 395.33-32.4 402.66-32.4 402.66-26.12 381.27 0 374.17 0ZM402.22-7.1L402.22 0 383.44 0 389.6-7.1 402.22-7.1ZM374.83-25.32L374.83-32.4 393.21-32.4 387.08-25.32 374.83-25.32Z" opacity="1" transform="matrix(1,0,0,1,0,0)" fill="#ffffff" class="undefined-text-0" data-fill-palette-color="primary" id="text-0"></path></svg></g></svg></g></svg></g></svg></g><g><svg viewBox="0 0 44.236730211624085 44.23673021162408" height="44.23673021162408" width="44.236730211624085"><g><svg xmlns="http://www.w3.org/2000/svg" xmlns:xlink="http://www.w3.org/1999/xlink" version="1.1" x="0" y="0" viewBox="0.5 0.5 47 46.99999999999999" style="enable-background:new 0 0 48 48;" xml:space="preserve" height="44.23673021162408" width="44.236730211624085" class="icon-icon-0" data-fill-palette-color="accent" id="icon-0"><g fill="#fefefe" data-fill-palette-color="accent"><path d="M16.8 5.6c0-0.2 0.1-0.3 0.3-0.3h13.8c0.2 0 0.3 0.1 0.3 0.3v3.3H36V5.6c0-2.8-2.3-5.1-5.1-5.1H17.1c-2.8 0-5.1 2.3-5.1 5.1v3.3h4.8V5.6z" fill="#ffffff" data-fill-palette-color="accent"></path><path d="M45.1 12.7H2.9c-1.3 0-2.4 1.1-2.4 2.4v8h15.7c1.3 0 2.4 1.1 2.4 2.4 0 0.1 0 0.2 0 0.3 0 0.1 0 0.2 0 0.3 0 1 1.2 2.2 3 2.7v-0.1c0-1.3 1.1-2.4 2.4-2.4s2.4 1.1 2.4 2.4v0.1c1.8-0.5 3-1.7 3-2.7 0-0.1 0-0.2 0-0.3 0-0.1 0-0.2 0-0.3 0-1.3 1.1-2.4 2.4-2.4h15.7v-8C47.5 13.8 46.4 12.7 45.1 12.7z" fill="#ffffff" data-fill-palette-color="accent"></path><path d="M26.4 33.8v0.5c0 1.3-1.1 2.4-2.4 2.4s-2.4-1.1-2.4-2.4v-0.5c-3.8-0.7-6.7-2.9-7.6-5.8H0.5v17.1c0 1.3 1.1 2.4 2.4 2.4h42.2c1.3 0 2.4-1.1 2.4-2.4V28H34C33.1 30.9 30.2 33.1 26.4 33.8z" fill="#ffffff" data-fill-palette-color="accent"></path></g></svg></g></svg></g></svg></g><defs></defs></svg><rect width="395.52" height="38.22230589257487" fill="none" stroke="none" visibility="hidden"></rect></g></svg></g></svg>